M48
;Layer_Color=9474304
;FILE_FORMAT=2:5
INCH,LZ
;TYPE=PLATED
T1F00S00C0.02362
T3F00S00C0.02756
T4F00S00C0.02800
T5F00S00C0.03150
T6F00S00C0.03346
T7F00S00C0.03543
T8F00S00C0.03937
T10F00S00C0.04606
T11F00S00C0.11811
%
T01
X0041814Y-0203937
Y-0197953
Y-0191969
X0048113
Y-0197953
Y-0203937
Y-0185984
Y-018
Y-0174016
X0041814
Y-018
Y-0185984
Y-0156337
Y-0150353
Y-0144369
Y-0138384
Y-01324
Y-0126416
X0048113
Y-01324
Y-0138384
Y-0144369
Y-0150353
Y-0156337
Y-0108737
Y-0102753
Y-0096768
Y-0090784
Y-00848
Y-0078816
X0041814
Y-00848
Y-0090784
Y-0096768
Y-0102753
Y-0108737
Y-0061137
Y-0055153
Y-0049169
Y-0043184
Y-00372
X0048113
Y-0043184
Y-0049169
Y-0055153
Y-0061137
Y-0031216
X0041814
T03
X0302457Y-0232496
X03123
X0322143
Y-0219504
X03123
X0302457
X0231861Y-0110656
Y-0085065
T04
X0214086Y-0210072
X02474Y-01985
X02575Y-0219
X02077Y-02264
X0186232Y-0192068
X0174032
X0094664Y-0191976
X00199Y-02075
Y-01697
Y-01607
Y-01214
Y-0113
Y-00739
Y-00657
X00912Y-00724
X01036
X0088964Y-0084776
X0094664Y-0096776
X011001Y-0105584
X01092Y-01184
X01176Y-01176
X01088Y-01292
X01148Y-01372
X0094664Y-0144376
X0088964Y-0132376
X00902Y-018
X01504Y-01576
X0170768Y-0167168
X0167156Y-0130456
X01528Y-01196
X0167156Y-0105156
X018165Y-011645
X02088Y-01176
X02112Y-00632
X0212Y-00532
X020248Y-0054829
X019368
X018488
X01812Y-00604
X01828Y-00716
X0176Y-00708
X01672Y-00748
X016434Y-00606
X016534Y-0032029
X018488Y-0036429
X019368Y-0036375
X020248
X01332Y-0032029
X010106
X0088964Y-0037176
X022148Y-0044182
X02212Y-00524
X022908Y-0054829
X023788
X024668
Y-0036375
X023788
X022908Y-0036429
X02196Y-00632
X026568Y-0044182
X03028Y-00408
X03425Y-00456
X0326512Y-0104844
X0301356Y-01192
X0283756Y-01268
X02761Y-01398
X02664Y-0138
X02684Y-01507
X02762Y-01522
X0266556Y-01124
X0278156Y-01008
X0300556Y-00912
X0342705Y-01532
X0247191Y-0186909
X03024Y-00144
X00198Y-00266
T05
X02792Y-0014
X0311024
T06
X0336205Y-0114487
Y-0094802
T07
X0136Y-02175
Y-02075
Y-01975
X0146
Y-02075
Y-02175
X0009664Y-0203876
Y-0193876
Y-0183876
Y-0173876
Y-0156276
Y-0146276
Y-0136276
Y-0126276
Y-0108676
Y-0098676
Y-0088676
Y-0078676
Y-0061076
Y-0051076
Y-0041076
X01064Y-01596
X01164
X01264
Y-01696
X01164
X01064
X02087Y-01572
Y-01472
X02187
Y-01572
X02287
Y-01472
X02387
Y-01572
X02487
Y-01472
X0304037Y-01484
X0314037
Y-01584
X0304037
X0262126Y-0009173
X0252126
X0242126
X0232126
X0217926
X0207926
X0197926
X0187926
X017414Y-0009629
X016414
X015414
X0142
X0132
X0122
X010986
X009986
X008986
X0009664Y-0031076
T08
X0102742Y-0222395
X0120458
Y-0196805
X0102742
T10
X0269615Y-02224
X02893
Y-01724
X0269615
T11
X034252Y-022441
X0011811
X034252Y-0011811
X0011811
M30
