%FSLAX25Y25*%
%MOIN*%
G70*
G01*
G75*
G04 Layer_Color=8421504*
%ADD10R,0.03543X0.02756*%
%ADD11R,0.05512X0.04331*%
%ADD12O,0.01772X0.08268*%
%ADD13R,0.02756X0.03543*%
%ADD14R,0.03937X0.03543*%
%ADD15R,0.03150X0.03543*%
%ADD16R,0.02362X0.04528*%
%ADD17R,0.04724X0.04724*%
%ADD18R,0.04724X0.04724*%
%ADD19R,0.06693X0.01378*%
%ADD20R,0.12205X0.36142*%
%ADD21O,0.02756X0.09843*%
%ADD22R,0.06693X0.04331*%
%ADD23R,0.06299X0.04724*%
%ADD24R,0.07874X0.06299*%
%ADD25R,0.15748X0.08268*%
%ADD26R,0.09055X0.09055*%
%ADD27R,0.03543X0.03150*%
%ADD28R,0.04331X0.03150*%
%ADD29R,0.03937X0.02480*%
%ADD30R,0.05118X0.15748*%
%ADD31R,0.05315X0.01575*%
%ADD32R,0.07087X0.05512*%
%ADD33O,0.02165X0.06890*%
%ADD34O,0.06890X0.02165*%
%ADD35C,0.01500*%
%ADD36C,0.01000*%
%ADD37C,0.00800*%
%ADD38R,0.07874X0.05906*%
%ADD39R,0.07874X0.04921*%
%ADD40R,0.05906X0.05906*%
%ADD41C,0.05906*%
%ADD42C,0.19685*%
%ADD43C,0.04331*%
G04:AMPARAMS|DCode=44|XSize=157.48mil|YSize=78.74mil|CornerRadius=19.69mil|HoleSize=0mil|Usage=FLASHONLY|Rotation=0.000|XOffset=0mil|YOffset=0mil|HoleType=Round|Shape=RoundedRectangle|*
%AMROUNDEDRECTD44*
21,1,0.15748,0.03937,0,0,0.0*
21,1,0.11811,0.07874,0,0,0.0*
1,1,0.03937,0.05906,-0.01969*
1,1,0.03937,-0.05906,-0.01969*
1,1,0.03937,-0.05906,0.01969*
1,1,0.03937,0.05906,0.01969*
%
%ADD44ROUNDEDRECTD44*%
G04:AMPARAMS|DCode=45|XSize=157.48mil|YSize=78.74mil|CornerRadius=19.69mil|HoleSize=0mil|Usage=FLASHONLY|Rotation=90.000|XOffset=0mil|YOffset=0mil|HoleType=Round|Shape=RoundedRectangle|*
%AMROUNDEDRECTD45*
21,1,0.15748,0.03937,0,0,90.0*
21,1,0.11811,0.07874,0,0,90.0*
1,1,0.03937,0.01969,0.05906*
1,1,0.03937,0.01969,-0.05906*
1,1,0.03937,-0.01969,-0.05906*
1,1,0.03937,-0.01969,0.05906*
%
%ADD45ROUNDEDRECTD45*%
%ADD46R,0.05906X0.05906*%
%ADD47C,0.06299*%
%ADD48C,0.05709*%
%ADD49O,0.07480X0.04724*%
%ADD50C,0.05000*%
%ADD51C,0.03937*%
%ADD52C,0.00984*%
%ADD53C,0.02362*%
%ADD54C,0.00394*%
%ADD55C,0.00787*%
D10*
X138500Y-162547D02*
D03*
Y-168453D02*
D03*
X165340Y-20676D02*
D03*
Y-26582D02*
D03*
X133200Y-20676D02*
D03*
Y-26582D02*
D03*
X101060Y-20676D02*
D03*
Y-26582D02*
D03*
X89164Y-47524D02*
D03*
Y-53429D02*
D03*
Y-190324D02*
D03*
Y-196229D02*
D03*
Y-142724D02*
D03*
Y-148629D02*
D03*
Y-95124D02*
D03*
Y-101029D02*
D03*
X159740Y-20676D02*
D03*
Y-26582D02*
D03*
X127600Y-20676D02*
D03*
Y-26582D02*
D03*
X95460Y-20676D02*
D03*
Y-26582D02*
D03*
X154140Y-20676D02*
D03*
Y-26582D02*
D03*
X122000Y-20676D02*
D03*
Y-26582D02*
D03*
X89860Y-20676D02*
D03*
Y-26582D02*
D03*
X258880Y-32829D02*
D03*
Y-38735D02*
D03*
X214680Y-32829D02*
D03*
Y-38735D02*
D03*
X252080Y-38735D02*
D03*
Y-32829D02*
D03*
X207880Y-38735D02*
D03*
Y-32829D02*
D03*
X259280Y-24982D02*
D03*
Y-19076D02*
D03*
X215080Y-24982D02*
D03*
Y-19076D02*
D03*
X265680Y-24982D02*
D03*
Y-19076D02*
D03*
X221480Y-24982D02*
D03*
Y-19076D02*
D03*
X211686Y-215060D02*
D03*
Y-220965D02*
D03*
X205358Y-220553D02*
D03*
Y-214647D02*
D03*
X243250Y-221716D02*
D03*
Y-215811D02*
D03*
D11*
X154000Y-162450D02*
D03*
Y-168356D02*
D03*
X189200D02*
D03*
Y-162450D02*
D03*
X250958Y-218016D02*
D03*
Y-212111D02*
D03*
X205358Y-202647D02*
D03*
Y-208553D02*
D03*
D12*
X292313Y-91217D02*
D03*
X289754D02*
D03*
X287194D02*
D03*
X284635D02*
D03*
X282076D02*
D03*
X279517D02*
D03*
X276958D02*
D03*
X274399D02*
D03*
X292313Y-118383D02*
D03*
X289754D02*
D03*
X287194D02*
D03*
X284635D02*
D03*
X282076D02*
D03*
X279517D02*
D03*
X276958D02*
D03*
X274399D02*
D03*
D13*
X307800Y-90400D02*
D03*
X313705D02*
D03*
X307800Y-100000D02*
D03*
X313705D02*
D03*
X326709Y-137033D02*
D03*
X320803D02*
D03*
X326709Y-128000D02*
D03*
X320803D02*
D03*
X328990Y-148000D02*
D03*
X323084D02*
D03*
X328990Y-158400D02*
D03*
X323084D02*
D03*
X290247Y-44000D02*
D03*
X296153D02*
D03*
X296153Y-34133D02*
D03*
X290247D02*
D03*
X326853Y-54200D02*
D03*
X320947D02*
D03*
X321047Y-37200D02*
D03*
X326953D02*
D03*
D14*
X313305Y-109600D02*
D03*
X307006D02*
D03*
X264150Y-212500D02*
D03*
X257850D02*
D03*
D15*
X326512Y-90400D02*
D03*
X321000D02*
D03*
X326512Y-100000D02*
D03*
X321000D02*
D03*
X326512Y-109600D02*
D03*
X321000D02*
D03*
X307997Y-119200D02*
D03*
X313509D02*
D03*
X326512Y-119200D02*
D03*
X321000D02*
D03*
X307800Y-127600D02*
D03*
X313312D02*
D03*
X73616Y-178376D02*
D03*
X68105D02*
D03*
X73817Y-129976D02*
D03*
X68305D02*
D03*
X74116Y-81276D02*
D03*
X68605D02*
D03*
X73516Y-33676D02*
D03*
X68005D02*
D03*
X68105Y-170976D02*
D03*
X73616D02*
D03*
X68305Y-122976D02*
D03*
X73817D02*
D03*
X68705Y-74476D02*
D03*
X74217D02*
D03*
X68005Y-26176D02*
D03*
X73516D02*
D03*
X198000Y-117600D02*
D03*
X203512D02*
D03*
X290444Y-24267D02*
D03*
X295956D02*
D03*
Y-14400D02*
D03*
X290444D02*
D03*
X131556Y-117600D02*
D03*
X126044D02*
D03*
D16*
X168140Y-43229D02*
D03*
X175620D02*
D03*
X171880Y-34371D02*
D03*
X136000Y-43229D02*
D03*
X143480D02*
D03*
X139740Y-34371D02*
D03*
X103860Y-43229D02*
D03*
X111340D02*
D03*
X107600Y-34371D02*
D03*
D17*
X171880Y-27468D02*
D03*
Y-19200D02*
D03*
X139740Y-27468D02*
D03*
Y-19200D02*
D03*
X107600Y-27468D02*
D03*
Y-19200D02*
D03*
X252080Y-18561D02*
D03*
Y-26829D02*
D03*
X207880Y-18561D02*
D03*
Y-26829D02*
D03*
D18*
X68802Y-48476D02*
D03*
X77069D02*
D03*
X68802Y-191276D02*
D03*
X77069D02*
D03*
X68802Y-143676D02*
D03*
X77069D02*
D03*
X68802Y-96076D02*
D03*
X77069D02*
D03*
X340288Y-136933D02*
D03*
X348556D02*
D03*
X340288Y-128000D02*
D03*
X348556D02*
D03*
X342705Y-148000D02*
D03*
X334437D02*
D03*
X342705Y-158400D02*
D03*
X334437D02*
D03*
X334600Y-36800D02*
D03*
X342868D02*
D03*
X334100Y-53800D02*
D03*
X342368D02*
D03*
D19*
X33743Y-172343D02*
D03*
Y-174902D02*
D03*
Y-177461D02*
D03*
Y-180020D02*
D03*
Y-182579D02*
D03*
Y-185138D02*
D03*
Y-187697D02*
D03*
Y-190256D02*
D03*
Y-192815D02*
D03*
Y-195374D02*
D03*
Y-197933D02*
D03*
Y-200492D02*
D03*
Y-203051D02*
D03*
Y-205610D02*
D03*
X56184Y-172343D02*
D03*
Y-174902D02*
D03*
Y-177461D02*
D03*
Y-180020D02*
D03*
Y-182579D02*
D03*
Y-185138D02*
D03*
Y-187697D02*
D03*
Y-190256D02*
D03*
Y-192815D02*
D03*
Y-195374D02*
D03*
Y-197933D02*
D03*
Y-200492D02*
D03*
Y-203051D02*
D03*
Y-205610D02*
D03*
X33743Y-124742D02*
D03*
Y-127302D02*
D03*
Y-129861D02*
D03*
Y-132420D02*
D03*
Y-134979D02*
D03*
Y-137538D02*
D03*
Y-140097D02*
D03*
Y-142656D02*
D03*
Y-145215D02*
D03*
Y-147774D02*
D03*
Y-150333D02*
D03*
Y-152892D02*
D03*
Y-155451D02*
D03*
Y-158010D02*
D03*
X56184Y-124742D02*
D03*
Y-127302D02*
D03*
Y-129861D02*
D03*
Y-132420D02*
D03*
Y-134979D02*
D03*
Y-137538D02*
D03*
Y-140097D02*
D03*
Y-142656D02*
D03*
Y-145215D02*
D03*
Y-147774D02*
D03*
Y-150333D02*
D03*
Y-152892D02*
D03*
Y-155451D02*
D03*
Y-158010D02*
D03*
X33743Y-77143D02*
D03*
Y-79702D02*
D03*
Y-82261D02*
D03*
Y-84820D02*
D03*
Y-87379D02*
D03*
Y-89938D02*
D03*
Y-92497D02*
D03*
Y-95056D02*
D03*
Y-97615D02*
D03*
Y-100174D02*
D03*
Y-102733D02*
D03*
Y-105292D02*
D03*
Y-107851D02*
D03*
Y-110410D02*
D03*
X56184Y-77143D02*
D03*
Y-79702D02*
D03*
Y-82261D02*
D03*
Y-84820D02*
D03*
Y-87379D02*
D03*
Y-89938D02*
D03*
Y-92497D02*
D03*
Y-95056D02*
D03*
Y-97615D02*
D03*
Y-100174D02*
D03*
Y-102733D02*
D03*
Y-105292D02*
D03*
Y-107851D02*
D03*
Y-110410D02*
D03*
X33743Y-29542D02*
D03*
Y-32102D02*
D03*
Y-34661D02*
D03*
Y-37220D02*
D03*
Y-39779D02*
D03*
Y-42338D02*
D03*
Y-44897D02*
D03*
Y-47456D02*
D03*
Y-50015D02*
D03*
Y-52574D02*
D03*
Y-55133D02*
D03*
Y-57692D02*
D03*
Y-60251D02*
D03*
Y-62810D02*
D03*
X56184Y-29542D02*
D03*
Y-32102D02*
D03*
Y-34661D02*
D03*
Y-37220D02*
D03*
Y-39779D02*
D03*
Y-42338D02*
D03*
Y-44897D02*
D03*
Y-47456D02*
D03*
Y-50015D02*
D03*
Y-52574D02*
D03*
Y-55133D02*
D03*
Y-57692D02*
D03*
Y-60251D02*
D03*
Y-62810D02*
D03*
D20*
X44964Y-188976D02*
D03*
Y-141376D02*
D03*
Y-93776D02*
D03*
Y-46176D02*
D03*
D21*
X244880Y-26429D02*
D03*
X239880D02*
D03*
X234880D02*
D03*
X229880D02*
D03*
X244880Y-45720D02*
D03*
X239880D02*
D03*
X234880D02*
D03*
X229880D02*
D03*
X200680Y-26429D02*
D03*
X195680D02*
D03*
X190680D02*
D03*
X185680D02*
D03*
X200680Y-45720D02*
D03*
X195680D02*
D03*
X190680D02*
D03*
X185680D02*
D03*
D22*
X19864Y-194661D02*
D03*
Y-205291D02*
D03*
Y-147061D02*
D03*
Y-157691D02*
D03*
Y-99461D02*
D03*
Y-110091D02*
D03*
Y-51861D02*
D03*
Y-62491D02*
D03*
X19864Y-183291D02*
D03*
Y-172661D02*
D03*
Y-135691D02*
D03*
Y-125061D02*
D03*
Y-88091D02*
D03*
Y-77461D02*
D03*
Y-40491D02*
D03*
Y-29861D02*
D03*
D23*
X69389Y-200539D02*
D03*
Y-208413D02*
D03*
Y-152539D02*
D03*
Y-160413D02*
D03*
Y-105039D02*
D03*
Y-112913D02*
D03*
Y-57639D02*
D03*
Y-65513D02*
D03*
D24*
X81200Y-204476D02*
D03*
Y-156476D02*
D03*
Y-108976D02*
D03*
Y-61576D02*
D03*
D25*
X220958Y-201868D02*
D03*
Y-185332D02*
D03*
D26*
X256508Y-202000D02*
D03*
X238791D02*
D03*
X257016Y-186400D02*
D03*
X239300D02*
D03*
D27*
X88964Y-202720D02*
D03*
Y-208232D02*
D03*
Y-155121D02*
D03*
Y-160632D02*
D03*
Y-107520D02*
D03*
Y-113032D02*
D03*
Y-59921D02*
D03*
Y-65432D02*
D03*
X218158Y-220768D02*
D03*
Y-215257D02*
D03*
X265680Y-33026D02*
D03*
Y-38538D02*
D03*
X221480Y-33026D02*
D03*
Y-38538D02*
D03*
X169556Y-85956D02*
D03*
Y-80444D02*
D03*
X164356Y-80444D02*
D03*
Y-85956D02*
D03*
X146800Y-168159D02*
D03*
Y-162647D02*
D03*
D28*
X284636Y-33736D02*
D03*
X274400Y-37476D02*
D03*
Y-29996D02*
D03*
X302164Y-33460D02*
D03*
X312400Y-29720D02*
D03*
Y-37200D02*
D03*
D29*
X236050Y-219502D02*
D03*
X225813Y-215761D02*
D03*
Y-219502D02*
D03*
Y-223242D02*
D03*
X236050D02*
D03*
Y-215761D02*
D03*
D30*
X180100Y-220032D02*
D03*
Y-186568D02*
D03*
D31*
X336205Y-109762D02*
D03*
Y-107203D02*
D03*
Y-104644D02*
D03*
Y-102085D02*
D03*
Y-99526D02*
D03*
D32*
X162139Y-167168D02*
D03*
Y-157720D02*
D03*
X179461D02*
D03*
Y-167168D02*
D03*
D33*
X151408Y-141844D02*
D03*
X154558D02*
D03*
X157707D02*
D03*
X160857D02*
D03*
X164006D02*
D03*
X167156D02*
D03*
X170306D02*
D03*
X173455D02*
D03*
X176605D02*
D03*
X179754D02*
D03*
X182904D02*
D03*
Y-97356D02*
D03*
X179754D02*
D03*
X176605D02*
D03*
X173455D02*
D03*
X170306D02*
D03*
X167156D02*
D03*
X164006D02*
D03*
X160857D02*
D03*
X157707D02*
D03*
X154558D02*
D03*
X151408D02*
D03*
D34*
X189400Y-135348D02*
D03*
Y-132198D02*
D03*
Y-129049D02*
D03*
Y-125899D02*
D03*
Y-122750D02*
D03*
Y-119600D02*
D03*
Y-116450D02*
D03*
Y-113301D02*
D03*
Y-110151D02*
D03*
Y-107002D02*
D03*
Y-103852D02*
D03*
X144912D02*
D03*
Y-107002D02*
D03*
Y-110151D02*
D03*
Y-113301D02*
D03*
Y-116450D02*
D03*
Y-119600D02*
D03*
Y-122750D02*
D03*
Y-125899D02*
D03*
Y-129049D02*
D03*
Y-132198D02*
D03*
Y-135348D02*
D03*
M02*
