%FSLAX25Y25*%
%MOIN*%
G70*
G01*
G75*
G04 Layer_Color=32768*
%ADD10R,0.03543X0.02756*%
%ADD11R,0.05512X0.04331*%
%ADD12O,0.01772X0.08268*%
%ADD13R,0.02756X0.03543*%
%ADD14R,0.03937X0.03543*%
%ADD15R,0.03150X0.03543*%
%ADD16R,0.02362X0.04528*%
%ADD17R,0.04724X0.04724*%
%ADD18R,0.04724X0.04724*%
%ADD19R,0.06693X0.01378*%
%ADD20R,0.12205X0.36142*%
%ADD21O,0.02756X0.09843*%
%ADD22R,0.06693X0.04331*%
%ADD23R,0.06299X0.04724*%
%ADD24R,0.07874X0.06299*%
%ADD25R,0.15748X0.08268*%
%ADD26R,0.09055X0.09055*%
%ADD27R,0.03543X0.03150*%
%ADD28R,0.04331X0.03150*%
%ADD29R,0.03937X0.02480*%
%ADD30R,0.05118X0.15748*%
%ADD31R,0.05315X0.01575*%
%ADD32R,0.07087X0.05512*%
%ADD33O,0.02165X0.06890*%
%ADD34O,0.06890X0.02165*%
%ADD35C,0.01500*%
%ADD36C,0.01000*%
%ADD37C,0.00800*%
%ADD38R,0.07874X0.05906*%
%ADD39R,0.07874X0.04921*%
%ADD40R,0.05906X0.05906*%
%ADD41C,0.05906*%
%ADD42C,0.19685*%
%ADD43C,0.04331*%
G04:AMPARAMS|DCode=44|XSize=157.48mil|YSize=78.74mil|CornerRadius=19.69mil|HoleSize=0mil|Usage=FLASHONLY|Rotation=0.000|XOffset=0mil|YOffset=0mil|HoleType=Round|Shape=RoundedRectangle|*
%AMROUNDEDRECTD44*
21,1,0.15748,0.03937,0,0,0.0*
21,1,0.11811,0.07874,0,0,0.0*
1,1,0.03937,0.05906,-0.01969*
1,1,0.03937,-0.05906,-0.01969*
1,1,0.03937,-0.05906,0.01969*
1,1,0.03937,0.05906,0.01969*
%
%ADD44ROUNDEDRECTD44*%
G04:AMPARAMS|DCode=45|XSize=157.48mil|YSize=78.74mil|CornerRadius=19.69mil|HoleSize=0mil|Usage=FLASHONLY|Rotation=90.000|XOffset=0mil|YOffset=0mil|HoleType=Round|Shape=RoundedRectangle|*
%AMROUNDEDRECTD45*
21,1,0.15748,0.03937,0,0,90.0*
21,1,0.11811,0.07874,0,0,90.0*
1,1,0.03937,0.01969,0.05906*
1,1,0.03937,0.01969,-0.05906*
1,1,0.03937,-0.01969,-0.05906*
1,1,0.03937,-0.01969,0.05906*
%
%ADD45ROUNDEDRECTD45*%
%ADD46R,0.05906X0.05906*%
%ADD47C,0.06299*%
%ADD48C,0.05709*%
%ADD49O,0.07480X0.04724*%
%ADD50C,0.05000*%
%ADD51C,0.03937*%
%ADD52C,0.00984*%
%ADD53C,0.02362*%
%ADD54C,0.00394*%
%ADD55C,0.00787*%
%ADD56R,0.04343X0.03556*%
%ADD57R,0.06312X0.05131*%
%ADD58O,0.02572X0.09068*%
%ADD59R,0.03556X0.04343*%
%ADD60R,0.04737X0.04343*%
%ADD61R,0.03950X0.04343*%
%ADD62R,0.03162X0.05328*%
%ADD63R,0.05524X0.05524*%
%ADD64R,0.05524X0.05524*%
%ADD65R,0.07493X0.02178*%
%ADD66R,0.13005X0.36942*%
%ADD67O,0.03556X0.10642*%
%ADD68R,0.07493X0.05131*%
%ADD69R,0.07099X0.05524*%
%ADD70R,0.08674X0.07099*%
%ADD71R,0.16548X0.09068*%
%ADD72R,0.09855X0.09855*%
%ADD73R,0.04343X0.03950*%
%ADD74R,0.05131X0.03950*%
%ADD75R,0.04488X0.03032*%
%ADD76R,0.05918X0.16548*%
%ADD77R,0.06115X0.02375*%
%ADD78R,0.07887X0.06312*%
%ADD79O,0.02965X0.07690*%
%ADD80O,0.07690X0.02965*%
%ADD81R,0.06706X0.06706*%
%ADD82C,0.06706*%
%ADD83C,0.20485*%
%ADD84C,0.04803*%
G04:AMPARAMS|DCode=85|XSize=165.48mil|YSize=86.74mil|CornerRadius=23.69mil|HoleSize=0mil|Usage=FLASHONLY|Rotation=0.000|XOffset=0mil|YOffset=0mil|HoleType=Round|Shape=RoundedRectangle|*
%AMROUNDEDRECTD85*
21,1,0.16548,0.03937,0,0,0.0*
21,1,0.11811,0.08674,0,0,0.0*
1,1,0.04737,0.05906,-0.01969*
1,1,0.04737,-0.05906,-0.01969*
1,1,0.04737,-0.05906,0.01969*
1,1,0.04737,0.05906,0.01969*
%
%ADD85ROUNDEDRECTD85*%
G04:AMPARAMS|DCode=86|XSize=165.48mil|YSize=86.74mil|CornerRadius=23.69mil|HoleSize=0mil|Usage=FLASHONLY|Rotation=90.000|XOffset=0mil|YOffset=0mil|HoleType=Round|Shape=RoundedRectangle|*
%AMROUNDEDRECTD86*
21,1,0.16548,0.03937,0,0,90.0*
21,1,0.11811,0.08674,0,0,90.0*
1,1,0.04737,0.01969,0.05906*
1,1,0.04737,0.01969,-0.05906*
1,1,0.04737,-0.01969,-0.05906*
1,1,0.04737,-0.01969,0.05906*
%
%ADD86ROUNDEDRECTD86*%
%ADD87R,0.06706X0.06706*%
%ADD88C,0.06772*%
%ADD89C,0.06509*%
%ADD90O,0.08280X0.05524*%
%ADD91C,0.05800*%
%ADD92C,0.04737*%
D54*
X136335Y-160776D02*
X140665D01*
X136335Y-170224D02*
X140665D01*
Y-160776D01*
X136335Y-170224D02*
Y-160776D01*
X138500Y-167370D02*
Y-163630D01*
X136630Y-165500D02*
X140370D01*
X150850Y-159891D02*
X157150D01*
X150850Y-170915D02*
X157150D01*
Y-159891D01*
X150850Y-170915D02*
Y-159891D01*
X154000Y-167372D02*
Y-163435D01*
X152032Y-165403D02*
X155968D01*
X186050Y-170915D02*
X192350D01*
X186050Y-159891D02*
X192350D01*
X186050Y-170915D02*
Y-159891D01*
X192350Y-170915D02*
Y-159891D01*
X189200Y-167372D02*
Y-163435D01*
X187232Y-165403D02*
X191168D01*
X247809Y-220575D02*
X254108D01*
X247809Y-209552D02*
X254108D01*
X247809Y-220575D02*
Y-209552D01*
X254108Y-220575D02*
Y-209552D01*
X250958Y-217032D02*
Y-213095D01*
X248990Y-215063D02*
X252927D01*
X269576Y-86099D02*
X297135D01*
X269576Y-123501D02*
X297135D01*
Y-86099D01*
X269576Y-123501D02*
Y-86099D01*
X283356Y-106769D02*
Y-102831D01*
X281387Y-104800D02*
X285324D01*
X306028Y-92565D02*
Y-88235D01*
X315477Y-92565D02*
Y-88235D01*
X306028D02*
X315477D01*
X306028Y-92565D02*
X315477D01*
X308883Y-90400D02*
X312623D01*
X310753Y-92270D02*
Y-88530D01*
X306028Y-102165D02*
Y-97835D01*
X315477Y-102165D02*
Y-97835D01*
X306028D02*
X315477D01*
X306028Y-102165D02*
X315477D01*
X308883Y-100000D02*
X312623D01*
X310753Y-101870D02*
Y-98130D01*
X310156Y-111470D02*
Y-107730D01*
X308286Y-109600D02*
X312026D01*
X305432Y-111765D02*
X314880D01*
X305432Y-107435D02*
X314880D01*
Y-111765D02*
Y-107435D01*
X305432Y-111765D02*
Y-107435D01*
X328480Y-92565D02*
Y-88235D01*
X319032Y-92565D02*
Y-88235D01*
Y-92565D02*
X328480D01*
X319032Y-88235D02*
X328480D01*
X321886Y-90400D02*
X325626D01*
X323756Y-92270D02*
Y-88530D01*
X328480Y-102165D02*
Y-97835D01*
X319032Y-102165D02*
Y-97835D01*
Y-102165D02*
X328480D01*
X319032Y-97835D02*
X328480D01*
X321886Y-100000D02*
X325626D01*
X323756Y-101870D02*
Y-98130D01*
X328480Y-111765D02*
Y-107435D01*
X319032Y-111765D02*
Y-107435D01*
Y-111765D02*
X328480D01*
X319032Y-107435D02*
X328480D01*
X321886Y-109600D02*
X325626D01*
X323756Y-111470D02*
Y-107730D01*
X163175Y-18905D02*
X167506D01*
X163175Y-28354D02*
X167506D01*
Y-18905D01*
X163175Y-28354D02*
Y-18905D01*
X165340Y-25499D02*
Y-21759D01*
X163470Y-23629D02*
X167210D01*
X131035Y-18905D02*
X135365D01*
X131035Y-28354D02*
X135365D01*
Y-18905D01*
X131035Y-28354D02*
Y-18905D01*
X133200Y-25499D02*
Y-21759D01*
X131330Y-23629D02*
X135070D01*
X98895Y-18905D02*
X103225D01*
X98895Y-28354D02*
X103225D01*
Y-18905D01*
X98895Y-28354D02*
Y-18905D01*
X101060Y-25499D02*
Y-21759D01*
X99190Y-23629D02*
X102930D01*
X164991Y-46477D02*
X178770D01*
X164991Y-31123D02*
X178770D01*
X164991Y-46477D02*
Y-31123D01*
X178770Y-46477D02*
Y-31123D01*
X171880Y-40769D02*
Y-36832D01*
X169912Y-38800D02*
X173849D01*
X132850Y-46477D02*
X146630D01*
X132850Y-31123D02*
X146630D01*
X132850Y-46477D02*
Y-31123D01*
X146630Y-46477D02*
Y-31123D01*
X139740Y-40769D02*
Y-36832D01*
X137772Y-38800D02*
X141709D01*
X100710Y-46477D02*
X114490D01*
X100710Y-31123D02*
X114490D01*
X100710Y-46477D02*
Y-31123D01*
X114490Y-46477D02*
Y-31123D01*
X107600Y-40769D02*
Y-36832D01*
X105631Y-38800D02*
X109569D01*
X86998Y-45752D02*
X91329D01*
X86998Y-55201D02*
X91329D01*
Y-45752D01*
X86998Y-55201D02*
Y-45752D01*
X89164Y-52346D02*
Y-48606D01*
X87294Y-50476D02*
X91034D01*
X29413Y-209252D02*
Y-168701D01*
X60515Y-209252D02*
Y-168701D01*
X29413D02*
X60515D01*
X29413Y-209252D02*
X60515D01*
X42995Y-188976D02*
X46932D01*
X44964Y-190945D02*
Y-187008D01*
X29413Y-161652D02*
Y-121101D01*
X60515Y-161652D02*
Y-121101D01*
X29413D02*
X60515D01*
X29413Y-161652D02*
X60515D01*
X42995Y-141376D02*
X46932D01*
X44964Y-143345D02*
Y-139408D01*
X29413Y-114052D02*
Y-73501D01*
X60515Y-114052D02*
Y-73501D01*
X29413D02*
X60515D01*
X29413Y-114052D02*
X60515D01*
X42995Y-93776D02*
X46932D01*
X44964Y-95745D02*
Y-91808D01*
X29413Y-66452D02*
Y-25901D01*
X60515Y-66452D02*
Y-25901D01*
X29413D02*
X60515D01*
X29413Y-66452D02*
X60515D01*
X42995Y-46176D02*
X46932D01*
X44964Y-48145D02*
Y-44208D01*
X86998Y-188552D02*
X91329D01*
X86998Y-198001D02*
X91329D01*
Y-188552D01*
X86998Y-198001D02*
Y-188552D01*
X89164Y-195147D02*
Y-191406D01*
X87294Y-193276D02*
X91034D01*
X86998Y-140952D02*
X91329D01*
X86998Y-150401D02*
X91329D01*
Y-140952D01*
X86998Y-150401D02*
Y-140952D01*
X89164Y-147547D02*
Y-143806D01*
X87294Y-145676D02*
X91034D01*
X86998Y-93352D02*
X91329D01*
X86998Y-102801D02*
X91329D01*
Y-93352D01*
X86998Y-102801D02*
Y-93352D01*
X89164Y-99946D02*
Y-96206D01*
X87294Y-98076D02*
X91034D01*
X235412Y-36075D02*
X239349D01*
X237380Y-38043D02*
Y-34106D01*
X249191Y-52610D02*
Y-19539D01*
X225569Y-52610D02*
Y-19539D01*
X249191D01*
X225569Y-52610D02*
X249191D01*
X191212Y-36075D02*
X195149D01*
X193180Y-38043D02*
Y-34106D01*
X204991Y-52610D02*
Y-19539D01*
X181369Y-52610D02*
Y-19539D01*
X204991D01*
X181369Y-52610D02*
X204991D01*
X328480Y-139199D02*
Y-134868D01*
X319032Y-139199D02*
Y-134868D01*
Y-139199D02*
X328480D01*
X319032Y-134868D02*
X328480D01*
X321886Y-137033D02*
X325626D01*
X323756Y-138903D02*
Y-135163D01*
X328480Y-130165D02*
Y-125835D01*
X319032Y-130165D02*
Y-125835D01*
Y-130165D02*
X328480D01*
X319032Y-125835D02*
X328480D01*
X321886Y-128000D02*
X325626D01*
X323756Y-129870D02*
Y-126130D01*
X17895Y-199976D02*
X21832D01*
X19864Y-201945D02*
Y-198008D01*
X23604Y-207850D02*
Y-192102D01*
X16124Y-207850D02*
Y-192102D01*
X23604D01*
X16124Y-207850D02*
X23604D01*
X17895Y-152376D02*
X21832D01*
X19864Y-154345D02*
Y-150408D01*
X23604Y-160250D02*
Y-144502D01*
X16124Y-160250D02*
Y-144502D01*
X23604D01*
X16124Y-160250D02*
X23604D01*
X17895Y-104776D02*
X21832D01*
X19864Y-106745D02*
Y-102808D01*
X23604Y-112650D02*
Y-96902D01*
X16124Y-112650D02*
Y-96902D01*
X23604D01*
X16124Y-112650D02*
X23604D01*
X17895Y-57176D02*
X21832D01*
X19864Y-59145D02*
Y-55208D01*
X23604Y-65050D02*
Y-49302D01*
X16124Y-65050D02*
Y-49302D01*
X23604D01*
X16124Y-65050D02*
X23604D01*
X17895Y-177976D02*
X21832D01*
X19864Y-179945D02*
Y-176008D01*
X16124Y-185850D02*
Y-170102D01*
X23604Y-185850D02*
Y-170102D01*
X16124Y-185850D02*
X23604D01*
X16124Y-170102D02*
X23604D01*
X17895Y-130376D02*
X21832D01*
X19864Y-132345D02*
Y-128408D01*
X16124Y-138250D02*
Y-122502D01*
X23604Y-138250D02*
Y-122502D01*
X16124Y-138250D02*
X23604D01*
X16124Y-122502D02*
X23604D01*
X17895Y-82776D02*
X21832D01*
X19864Y-84745D02*
Y-80808D01*
X16124Y-90650D02*
Y-74902D01*
X23604Y-90650D02*
Y-74902D01*
X16124Y-90650D02*
X23604D01*
X16124Y-74902D02*
X23604D01*
X17895Y-35176D02*
X21832D01*
X19864Y-37145D02*
Y-33208D01*
X16124Y-43050D02*
Y-27302D01*
X23604Y-43050D02*
Y-27302D01*
X16124Y-43050D02*
X23604D01*
X16124Y-27302D02*
X23604D01*
X330761Y-150165D02*
Y-145835D01*
X321313Y-150165D02*
Y-145835D01*
Y-150165D02*
X330761D01*
X321313Y-145835D02*
X330761D01*
X324167Y-148000D02*
X327907D01*
X326037Y-149870D02*
Y-146130D01*
X330761Y-160565D02*
Y-156235D01*
X321313Y-160565D02*
Y-156235D01*
Y-160565D02*
X330761D01*
X321313Y-156235D02*
X330761D01*
X324167Y-158400D02*
X327907D01*
X326037Y-160270D02*
Y-156530D01*
X157575Y-18905D02*
X161906D01*
X157575Y-28354D02*
X161906D01*
Y-18905D01*
X157575Y-28354D02*
Y-18905D01*
X159740Y-25499D02*
Y-21759D01*
X157870Y-23629D02*
X161610D01*
X125435Y-18905D02*
X129765D01*
X125435Y-28354D02*
X129765D01*
Y-18905D01*
X125435Y-28354D02*
Y-18905D01*
X127600Y-25499D02*
Y-21759D01*
X125730Y-23629D02*
X129470D01*
X93295Y-18905D02*
X97625D01*
X93295Y-28354D02*
X97625D01*
Y-18905D01*
X93295Y-28354D02*
Y-18905D01*
X95460Y-25499D02*
Y-21759D01*
X93590Y-23629D02*
X97330D01*
X151975Y-18905D02*
X156306D01*
X151975Y-28354D02*
X156306D01*
Y-18905D01*
X151975Y-28354D02*
Y-18905D01*
X154140Y-25499D02*
Y-21759D01*
X152270Y-23629D02*
X156010D01*
X119835Y-18905D02*
X124165D01*
X119835Y-28354D02*
X124165D01*
Y-18905D01*
X119835Y-28354D02*
Y-18905D01*
X122000Y-25499D02*
Y-21759D01*
X120130Y-23629D02*
X123870D01*
X87695Y-18905D02*
X92025D01*
X87695Y-28354D02*
X92025D01*
Y-18905D01*
X87695Y-28354D02*
Y-18905D01*
X89860Y-25499D02*
Y-21759D01*
X87990Y-23629D02*
X91730D01*
X256715Y-31058D02*
X261046D01*
X256715Y-40506D02*
X261046D01*
Y-31058D01*
X256715Y-40506D02*
Y-31058D01*
X258880Y-37652D02*
Y-33912D01*
X257010Y-35782D02*
X260750D01*
X212515Y-31058D02*
X216846D01*
X212515Y-40506D02*
X216846D01*
Y-31058D01*
X212515Y-40506D02*
Y-31058D01*
X214680Y-37652D02*
Y-33912D01*
X212810Y-35782D02*
X216550D01*
X249915Y-40506D02*
X254246D01*
X249915Y-31058D02*
X254246D01*
X249915Y-40506D02*
Y-31058D01*
X254246Y-40506D02*
Y-31058D01*
X252080Y-37652D02*
Y-33912D01*
X250210Y-35782D02*
X253950D01*
X205715Y-40506D02*
X210046D01*
X205715Y-31058D02*
X210046D01*
X205715Y-40506D02*
Y-31058D01*
X210046Y-40506D02*
Y-31058D01*
X207880Y-37652D02*
Y-33912D01*
X206010Y-35782D02*
X209750D01*
X257115Y-26754D02*
X261446D01*
X257115Y-17305D02*
X261446D01*
X257115Y-26754D02*
Y-17305D01*
X261446Y-26754D02*
Y-17305D01*
X259280Y-23899D02*
Y-20159D01*
X257410Y-22029D02*
X261150D01*
X212915Y-26754D02*
X217246D01*
X212915Y-17305D02*
X217246D01*
X212915Y-26754D02*
Y-17305D01*
X217246Y-26754D02*
Y-17305D01*
X215080Y-23899D02*
Y-20159D01*
X213210Y-22029D02*
X216950D01*
X263515Y-26754D02*
X267846D01*
X263515Y-17305D02*
X267846D01*
X263515Y-26754D02*
Y-17305D01*
X267846Y-26754D02*
Y-17305D01*
X265680Y-23899D02*
Y-20159D01*
X263810Y-22029D02*
X267550D01*
X219315Y-26754D02*
X223646D01*
X219315Y-17305D02*
X223646D01*
X219315Y-26754D02*
Y-17305D01*
X223646Y-26754D02*
Y-17305D01*
X221480Y-23899D02*
Y-20159D01*
X219610Y-22029D02*
X223350D01*
X306028Y-121365D02*
Y-117035D01*
X315477Y-121365D02*
Y-117035D01*
X306028D02*
X315477D01*
X306028Y-121365D02*
X315477D01*
X308883Y-119200D02*
X312623D01*
X310753Y-121070D02*
Y-117330D01*
X328480Y-121365D02*
Y-117035D01*
X319032Y-121365D02*
Y-117035D01*
Y-121365D02*
X328480D01*
X319032Y-117035D02*
X328480D01*
X321886Y-119200D02*
X325626D01*
X323756Y-121070D02*
Y-117330D01*
X305832Y-129765D02*
Y-125435D01*
X315280Y-129765D02*
Y-125435D01*
X305832D02*
X315280D01*
X305832Y-129765D02*
X315280D01*
X308686Y-127600D02*
X312426D01*
X310556Y-129470D02*
Y-125730D01*
X75585Y-180542D02*
Y-176211D01*
X66136Y-180542D02*
Y-176211D01*
Y-180542D02*
X75585D01*
X66136Y-176211D02*
X75585D01*
X68990Y-178376D02*
X72731D01*
X70861Y-180246D02*
Y-176506D01*
X75785Y-132142D02*
Y-127811D01*
X66336Y-132142D02*
Y-127811D01*
Y-132142D02*
X75785D01*
X66336Y-127811D02*
X75785D01*
X69191Y-129976D02*
X72931D01*
X71061Y-131846D02*
Y-128106D01*
X76085Y-83442D02*
Y-79111D01*
X66636Y-83442D02*
Y-79111D01*
Y-83442D02*
X76085D01*
X66636Y-79111D02*
X76085D01*
X69490Y-81276D02*
X73231D01*
X71361Y-83147D02*
Y-79406D01*
X75485Y-35842D02*
Y-31511D01*
X66036Y-35842D02*
Y-31511D01*
Y-35842D02*
X75485D01*
X66036Y-31511D02*
X75485D01*
X68891Y-33676D02*
X72631D01*
X70761Y-35546D02*
Y-31806D01*
X86798Y-200752D02*
X91129D01*
X86798Y-210201D02*
X91129D01*
Y-200752D01*
X86798Y-210201D02*
Y-200752D01*
X88964Y-207347D02*
Y-203606D01*
X87094Y-205476D02*
X90834D01*
X86798Y-153152D02*
X91129D01*
X86798Y-162601D02*
X91129D01*
Y-153152D01*
X86798Y-162601D02*
Y-153152D01*
X88964Y-159747D02*
Y-156006D01*
X87094Y-157876D02*
X90834D01*
X86798Y-105552D02*
X91129D01*
X86798Y-115001D02*
X91129D01*
Y-105552D01*
X86798Y-115001D02*
Y-105552D01*
X88964Y-112146D02*
Y-108406D01*
X87094Y-110276D02*
X90834D01*
X86798Y-57952D02*
X91129D01*
X86798Y-67401D02*
X91129D01*
Y-57952D01*
X86798Y-67401D02*
Y-57952D01*
X88964Y-64547D02*
Y-60806D01*
X87094Y-62676D02*
X90834D01*
X66136Y-173142D02*
Y-168811D01*
X75585Y-173142D02*
Y-168811D01*
X66136D02*
X75585D01*
X66136Y-173142D02*
X75585D01*
X68990Y-170976D02*
X72731D01*
X70861Y-172846D02*
Y-169106D01*
X66336Y-125142D02*
Y-120811D01*
X75785Y-125142D02*
Y-120811D01*
X66336D02*
X75785D01*
X66336Y-125142D02*
X75785D01*
X69191Y-122976D02*
X72931D01*
X71061Y-124846D02*
Y-121106D01*
X66736Y-76642D02*
Y-72311D01*
X76185Y-76642D02*
Y-72311D01*
X66736D02*
X76185D01*
X66736Y-76642D02*
X76185D01*
X69591Y-74476D02*
X73331D01*
X71461Y-76346D02*
Y-72606D01*
X66036Y-28342D02*
Y-24011D01*
X75485Y-28342D02*
Y-24011D01*
X66036D02*
X75485D01*
X66036Y-28342D02*
X75485D01*
X68891Y-26176D02*
X72631D01*
X70761Y-28046D02*
Y-24306D01*
X202209Y-200088D02*
X208508D01*
X202209Y-211112D02*
X208508D01*
Y-200088D01*
X202209Y-211112D02*
Y-200088D01*
X205358Y-207569D02*
Y-203631D01*
X203390Y-205600D02*
X207327D01*
X215993Y-222737D02*
X220324D01*
X215993Y-213288D02*
X220324D01*
X215993Y-222737D02*
Y-213288D01*
X220324Y-222737D02*
Y-213288D01*
X218158Y-219883D02*
Y-216143D01*
X216288Y-218013D02*
X220028D01*
X263515Y-31058D02*
X267846D01*
X263515Y-40506D02*
X267846D01*
Y-31058D01*
X263515Y-40506D02*
Y-31058D01*
X265680Y-37652D02*
Y-33912D01*
X263810Y-35782D02*
X267550D01*
X219315Y-31058D02*
X223646D01*
X219315Y-40506D02*
X223646D01*
Y-31058D01*
X219315Y-40506D02*
Y-31058D01*
X221480Y-37652D02*
Y-33912D01*
X219610Y-35782D02*
X223350D01*
X196031Y-119765D02*
Y-115435D01*
X205480Y-119765D02*
Y-115435D01*
X196031D02*
X205480D01*
X196031Y-119765D02*
X205480D01*
X198886Y-117600D02*
X202626D01*
X200756Y-119470D02*
Y-115730D01*
X167391Y-87924D02*
X171721D01*
X167391Y-78476D02*
X171721D01*
X167391Y-87924D02*
Y-78476D01*
X171721Y-87924D02*
Y-78476D01*
X169556Y-85070D02*
Y-81330D01*
X167686Y-83200D02*
X171426D01*
X162191Y-78476D02*
X166521D01*
X162191Y-87924D02*
X166521D01*
Y-78476D01*
X162191Y-87924D02*
Y-78476D01*
X164356Y-85070D02*
Y-81330D01*
X162486Y-83200D02*
X166226D01*
X293200Y-45870D02*
Y-42130D01*
X291330Y-44000D02*
X295070D01*
X288476Y-41835D02*
X297924D01*
X288476Y-46165D02*
X297924D01*
X288476D02*
Y-41835D01*
X297924Y-46165D02*
Y-41835D01*
X293200Y-36003D02*
Y-32263D01*
X291330Y-34133D02*
X295070D01*
X288476Y-36299D02*
X297924D01*
X288476Y-31968D02*
X297924D01*
Y-36299D02*
Y-31968D01*
X288476Y-36299D02*
Y-31968D01*
X293200Y-26137D02*
Y-22397D01*
X291330Y-24267D02*
X295070D01*
X288476Y-22101D02*
X297924D01*
X288476Y-26432D02*
X297924D01*
X288476D02*
Y-22101D01*
X297924Y-26432D02*
Y-22101D01*
X293200Y-16270D02*
Y-12530D01*
X291330Y-14400D02*
X295070D01*
X288476Y-16565D02*
X297924D01*
X288476Y-12235D02*
X297924D01*
Y-16565D02*
Y-12235D01*
X288476Y-16565D02*
Y-12235D01*
X279518Y-35705D02*
Y-31768D01*
X277550Y-33736D02*
X281487D01*
X272628Y-40232D02*
X286408D01*
X272628Y-27240D02*
X286408D01*
Y-40232D02*
Y-27240D01*
X272628Y-40232D02*
Y-27240D01*
X307282Y-35428D02*
Y-31491D01*
X305313Y-33460D02*
X309250D01*
X300392Y-26964D02*
X314172D01*
X300392Y-39956D02*
X314172D01*
X300392D02*
Y-26964D01*
X314172Y-39956D02*
Y-26964D01*
X133524Y-119765D02*
Y-115435D01*
X124076Y-119765D02*
Y-115435D01*
Y-119765D02*
X133524D01*
X124076Y-115435D02*
X133524D01*
X126930Y-117600D02*
X130670D01*
X128800Y-119470D02*
Y-115730D01*
X328624Y-56365D02*
Y-52035D01*
X319176Y-56365D02*
Y-52035D01*
Y-56365D02*
X328624D01*
X319176Y-52035D02*
X328624D01*
X322030Y-54200D02*
X325770D01*
X323900Y-56070D02*
Y-52330D01*
X144635Y-170128D02*
X148965D01*
X144635Y-160679D02*
X148965D01*
X144635Y-170128D02*
Y-160679D01*
X148965Y-170128D02*
Y-160679D01*
X146800Y-167273D02*
Y-163533D01*
X144930Y-165403D02*
X148670D01*
X209521Y-213288D02*
X213852D01*
X209521Y-222737D02*
X213852D01*
Y-213288D01*
X209521Y-222737D02*
Y-213288D01*
X211686Y-219883D02*
Y-216143D01*
X209816Y-218013D02*
X213556D01*
X203193Y-222324D02*
X207524D01*
X203193Y-212876D02*
X207524D01*
X203193Y-222324D02*
Y-212876D01*
X207524Y-222324D02*
Y-212876D01*
X205358Y-219470D02*
Y-215730D01*
X203488Y-217600D02*
X207228D01*
X224042Y-225998D02*
Y-213005D01*
X237821Y-225998D02*
Y-213005D01*
X224042D02*
X237821D01*
X224042Y-225998D02*
X237821D01*
X228963Y-219502D02*
X232900D01*
X230931Y-221470D02*
Y-217533D01*
X241084Y-223488D02*
X245415D01*
X241084Y-214039D02*
X245415D01*
X241084Y-223488D02*
Y-214039D01*
X245415Y-223488D02*
Y-214039D01*
X243250Y-220634D02*
Y-216893D01*
X241379Y-218763D02*
X245120D01*
X261000Y-214370D02*
Y-210630D01*
X259130Y-212500D02*
X262870D01*
X256276Y-214665D02*
X265724D01*
X256276Y-210335D02*
X265724D01*
Y-214665D02*
Y-210335D01*
X256276Y-214665D02*
Y-210335D01*
X324000Y-39070D02*
Y-35330D01*
X322130Y-37200D02*
X325870D01*
X319276Y-35035D02*
X328724D01*
X319276Y-39365D02*
X328724D01*
X319276D02*
Y-35035D01*
X328724Y-39365D02*
Y-35035D01*
X140581Y-146175D02*
X193731D01*
X140581Y-93025D02*
X193731D01*
X140581Y-146175D02*
Y-93025D01*
X193731Y-146175D02*
Y-93025D01*
X167156Y-121569D02*
Y-117631D01*
X165187Y-119600D02*
X169124D01*
M02*
